<?xml version="1.0" standalone="no"?>
<!DOCTYPE svg PUBLIC "-//W3C//DTD SVG 20010904//EN"
 "http://www.w3.org/TR/2001/REC-SVG-20010904/DTD/svg10.dtd">
<svg version="1.0" xmlns="http://www.w3.org/2000/svg"
 width="315.000000pt" height="315.000000pt" viewBox="0 0 315.000000 315.000000"
 preserveAspectRatio="xMidYMid meet">
<metadata>
Created by potrace 1.11, written by Peter Selinger 2001-2013
</metadata>
<g transform="translate(0.000000,315.000000) scale(0.100000,-0.100000)"
fill="#000000" stroke="none">
<path d="M1449 3106 c-2 -2 -38 -7 -78 -10 -41 -4 -78 -9 -81 -11 -4 -2 -18
-6 -33 -9 -112 -20 -294 -87 -415 -152 -401 -217 -699 -628 -778 -1074 -3 -19
-8 -46 -10 -60 -10 -52 -12 -338 -2 -405 71 -522 380 -954 843 -1184 238 -117
436 -161 710 -156 88 2 169 5 180 8 11 2 36 7 55 11 60 11 73 14 138 30 99 26
199 65 301 118 307 159 548 413 695 731 38 84 92 247 102 312 3 22 8 43 10 47
18 28 25 393 10 488 -66 424 -290 791 -634 1037 -166 119 -406 221 -609 258
-79 15 -393 31 -404 21z"/>
</g>
</svg>
